<svg width="30" height="23" viewBox="0 0 30 23" fill="none" xmlns="http://www.w3.org/2000/svg">
<path d="M25.4567 1.91896C23.508 1.01097 21.4465 0.365633 19.3266 0C19.0621 0.474932 18.7546 1.11557 18.5406 1.62306C16.2889 1.28128 13.9982 1.28128 11.7464 1.62306C11.5103 1.0685 11.245 0.526732 10.9516 0C8.82984 0.366236 6.76674 1.01309 4.81702 1.9234C0.9378 7.76167 -0.114093 13.4549 0.411853 19.0668C2.67633 20.7695 5.22055 22.0676 7.9311 22.9033C8.54011 22.0687 9.07879 21.1853 9.54162 20.2623C8.6613 19.9282 7.81257 19.5167 7.00549 19.0328C7.21795 18.876 7.42595 18.7117 7.62652 18.5431C12.516 20.8201 17.8275 20.8201 22.6591 18.5431C22.8626 18.7117 23.0706 18.876 23.2801 19.0328C22.4763 19.5151 21.625 19.9294 20.7395 20.2638C21.2016 21.1872 21.7403 22.0706 22.35 22.9048C25.0627 22.0696 27.6087 20.7704 29.8737 19.0654C30.4903 12.5613 28.8204 6.91981 25.4567 1.91896ZM10.2072 15.6151C8.73933 15.6151 7.53589 14.2509 7.53589 12.5894C7.53589 10.9279 8.71407 9.56079 10.2072 9.56079C11.7004 9.56079 12.9038 10.9249 12.8786 12.5894C12.88 14.2509 11.7004 15.6151 10.2072 15.6151ZM20.0784 15.6151C18.6105 15.6151 17.407 14.2509 17.407 12.5894C17.407 10.9279 18.5852 9.56079 20.0784 9.56079C21.5715 9.56079 22.775 10.9249 22.7497 12.5894C22.7497 14.2509 21.5715 15.6151 20.0784 15.6151Z" fill="white"/>
</svg>
