<svg width="24" height="23" viewBox="0 0 24 23" fill="none" xmlns="http://www.w3.org/2000/svg">
<path d="M3.56012 0H20.5843C22.2017 0 23.5239 1.32277 23.5239 2.94028V19.9658C23.5239 21.5829 22.2017 22.9048 20.5843 22.9048H3.56012C1.94274 22.9048 0.619141 21.5828 0.619141 19.9658V2.94028C0.619141 1.32277 1.94274 0 3.56012 0ZM17.3049 2.54393C16.7371 2.54393 16.2738 3.009 16.2738 3.57665V6.04399C16.2738 6.61182 16.737 7.07586 17.3049 7.07586H19.8934C20.4604 7.07586 20.9246 6.61186 20.9246 6.04399V3.57661C20.9246 3.009 20.4603 2.54388 19.8934 2.54388C19.8934 2.54393 17.3049 2.54393 17.3049 2.54393ZM20.9345 9.68609H18.9192C19.1103 10.3103 19.2139 10.9685 19.2139 11.6529C19.2139 15.4617 16.0251 18.5509 12.0931 18.5509C8.1621 18.5509 4.97319 15.4617 4.97319 11.6529C4.97319 10.9685 5.07779 10.3103 5.26796 9.68609H3.16537V19.3627C3.16537 19.8639 3.57453 20.2715 4.07517 20.2715H20.0251C20.5262 20.2715 20.9345 19.8639 20.9345 19.3627V9.68609ZM12.0931 6.94571C9.55374 6.94571 7.49383 8.94073 7.49383 11.4039C7.49383 13.8647 9.55374 15.8612 12.0931 15.8612C14.6339 15.8612 16.6939 13.8647 16.6939 11.4039C16.6939 8.94064 14.6339 6.94571 12.0931 6.94571Z" fill="white"/>
</svg>
